<svg width="16" height="16" viewBox="0 0 20 20" fill="none" xmlns="http://www.w3.org/2000/svg">
<path d="M15.3999 12.6C12.0146 12.6 8.12129 12.6 4.59985 12.6V11.8032L15.3999 11.8C15.3998 11.8744 15.3999 12.1 15.3999 12.3168C15.3999 12.4 15.3999 12.5 15.3999 12.6Z" fill="#14589C"/>
<path fill-rule="evenodd" clip-rule="evenodd" d="M17 0.8H2.99995V19.2H17V0.8ZM2.19995 0V20H17.8V0H2.19995Z" fill="#14589C"/>
<path d="M15.3999 9.99995C12.0146 9.99995 8.12129 9.99995 4.59985 9.99995V9.20314L15.3999 9.19995C15.3998 9.27428 15.3999 9.49995 15.3999 9.71674C15.3999 9.79995 15.3999 9.89995 15.3999 9.99995Z" fill="#14589C"/>
<path d="M15.1999 5.60005C11.8773 5.60005 8.05607 5.60005 4.59985 5.60005V4.80324L15.1999 4.80005C15.1998 4.87438 15.1999 5.10005 15.1999 5.31684C15.1999 5.40005 15.1999 5.50005 15.1999 5.60005Z" fill="#14589C"/>
<path d="M15.3999 17.6C14.4596 17.6 13.3781 17.6 12.3999 17.6V16.8032L15.3999 16.8C15.3999 16.8744 15.3999 17.1 15.3999 17.3168C15.3999 17.4 15.3999 17.5 15.3999 17.6Z" fill="#14589C"/>
<path d="M15.3999 15.2C12.0146 15.2 8.12129 15.2 4.59985 15.2V14.4032L15.3999 14.4C15.3998 14.4744 15.3999 14.7 15.3999 14.9168C15.3999 15 15.3999 15.1 15.3999 15.2Z" fill="#14589C"/>
</svg>
