<svg width="100" height="100" viewBox="0 0 100 100" fill="none" xmlns="http://www.w3.org/2000/svg">
<g clip-path="url(#clip0)">
<path d="M6 0C2.71094 0 0 2.71094 0 6V94C0 97.2891 2.71094 100 6 100H74C77.2891 100 80 97.2891 80 94V78L76 82V94C76 95.125 75.125 96 74 96H6C4.875 96 4 95.125 4 94V6C4 4.86719 4.86719 4 6 4H74C75.125 4 76 4.875 76 6V18L80 22V6C80 2.71094 77.2891 0 74 0H6ZM75.6875 26.1875C74.9375 26.3203 74.3359 26.8672 74.125 27.5938C73.9141 28.3281 74.1328 29.1094 74.6875 29.625L93.0625 48H34C33.9375 48 33.875 48 33.8125 48C32.7109 48.0547 31.8516 48.9922 31.9062 50.0938C31.9609 51.1953 32.8984 52.0547 34 52H93.0625L74.6875 70.375C74.0938 70.8594 73.8203 71.6328 73.9922 72.3828C74.1641 73.125 74.75 73.7109 75.4922 73.8828C76.2422 74.0547 77.0156 73.7812 77.5 73.1875L99.3125 51.4375L100.688 50L99.3125 48.5625L77.5 26.8125C77.0859 26.3672 76.4844 26.1406 75.875 26.1875C75.8125 26.1875 75.75 26.1875 75.6875 26.1875Z" fill="#14589C"/>
</g>
<defs>
<clipPath id="clip0">
<rect width="100" height="100" fill="white"/>
</clipPath>
</defs>
</svg>
