<svg width="16" height="16" viewBox="0 0 60 60" fill="none" xmlns="http://www.w3.org/2000/svg">
<path d="M53.1999 0.560059C51.6049 0.560059 50.0149 1.18506 48.7999 2.40006L47.7599 3.44006L56.5599 12.2401C56.5549 12.2451 57.5999 11.2001 57.5999 11.2001C60.0349 8.76506 60.0299 4.83006 57.5999 2.40006C56.3799 1.18506 54.7949 0.560059 53.1999 0.560059ZM45.7999 5.72006C45.5099 5.76006 45.2399 5.90506 45.0399 6.12006L3.51994 47.6801C3.35494 47.8301 3.22994 48.0251 3.15994 48.2401L0.599941 57.8401C0.484941 58.2801 0.614941 58.7451 0.934941 59.0651C1.25494 59.3851 1.71994 59.5151 2.15994 59.4001L11.7599 56.8401C11.9749 56.7701 12.1699 56.6451 12.3199 56.4801L53.8799 14.9601C54.3899 14.4651 54.3949 13.6501 53.8999 13.1401C53.4049 12.6301 52.5899 12.6251 52.0799 13.1201L10.7599 54.4401L5.55994 49.2401L46.8799 7.92006C47.2649 7.55006 47.3799 6.97506 47.1649 6.48506C46.9499 5.99506 46.4549 5.69006 45.9199 5.72006C45.8799 5.72006 45.8399 5.72006 45.7999 5.72006V5.72006Z" fill="#14589C"/>
</svg>
