<svg width="13" height="16" viewBox="0 0 48 60" fill="none" xmlns="http://www.w3.org/2000/svg">
<path d="M18.8799 0.560059C16.7737 0.560059 15.0399 2.29388 15.0399 4.40006V6.96006H4.99738C4.92551 6.94804 4.85275 6.94219 4.77988 6.94256C4.71787 6.9439 4.65604 6.94975 4.59488 6.96006H2.23988C1.77827 6.95353 1.3489 7.19606 1.11618 7.59478C0.883473 7.99349 0.883473 8.48662 1.11618 8.88534C1.3489 9.28406 1.77827 9.52659 2.23988 9.52006H3.51988V55.6001C3.51988 57.7062 5.2537 59.4401 7.35988 59.4401H40.6399C42.7461 59.4401 44.4799 57.7062 44.4799 55.6001V9.52006H45.7599C46.2215 9.52659 46.6509 9.28406 46.8836 8.88534C47.1163 8.48662 47.1163 7.99349 46.8836 7.59478C46.6509 7.19606 46.2215 6.95353 45.7599 6.96006H43.4149C43.2767 6.93721 43.1356 6.93721 42.9974 6.96006H32.9599V4.40006C32.9599 2.29388 31.2261 0.560059 29.1199 0.560059H18.8799ZM18.8799 3.12006H29.1199C29.8297 3.12006 30.3999 3.69024 30.3999 4.40006V6.96006H17.5999V4.40006C17.5999 3.69024 18.1701 3.12006 18.8799 3.12006V3.12006ZM6.07988 9.52006H16.1049C16.2431 9.5429 16.3842 9.5429 16.5224 9.52006H31.4649C31.6031 9.5429 31.7441 9.5429 31.8824 9.52006H41.9199V55.6001C41.9199 56.3099 41.3497 56.8801 40.6399 56.8801H7.35988C6.65006 56.8801 6.07988 56.3099 6.07988 55.6001V9.52006ZM16.2999 15.9026C15.5939 15.9136 15.0302 16.4941 15.0399 17.2001V49.2001C15.0334 49.6617 15.2759 50.091 15.6746 50.3237C16.0733 50.5565 16.5664 50.5565 16.9652 50.3237C17.3639 50.091 17.6064 49.6617 17.5999 49.2001V17.2001C17.6046 16.8541 17.4691 16.5209 17.2242 16.2765C16.9793 16.032 16.6459 15.8972 16.2999 15.9026V15.9026ZM23.9799 15.9026C23.2739 15.9136 22.7102 16.4941 22.7199 17.2001V49.2001C22.7133 49.6617 22.9559 50.091 23.3546 50.3237C23.7533 50.5565 24.2464 50.5565 24.6452 50.3237C25.0439 50.091 25.2864 49.6617 25.2799 49.2001V17.2001C25.2846 16.8541 25.1491 16.5209 24.9042 16.2765C24.6593 16.032 24.3259 15.8972 23.9799 15.9026V15.9026ZM31.6599 15.9026C30.9539 15.9136 30.3902 16.4941 30.3999 17.2001V49.2001C30.3933 49.6617 30.6359 50.091 31.0346 50.3237C31.4333 50.5565 31.9264 50.5565 32.3252 50.3237C32.7239 50.091 32.9664 49.6617 32.9599 49.2001V17.2001C32.9646 16.8541 32.8291 16.5209 32.5842 16.2765C32.3393 16.032 32.0059 15.8972 31.6599 15.9026V15.9026Z" fill="#14589C"/>
</svg>
